<svg height="512" viewBox="0 0 60 60" width="512" xmlns="http://www.w3.org/2000/svg"><g id="Page-1" fill="none" fill-rule="evenodd"><g id="052---Criminology" fill-rule="nonzero"><path id="Shape" d="m53 27c.0133015 5.5532423-1.7685911 10.9620579-5.08 15.42-1.5372613 2.1072537-3.3927463 3.9627387-5.5 5.5-9.6900035 7.1351185-23.0107992 6.6856297-32.1977829-1.0864623-9.18698373-7.7720919-11.83759596-20.8342469-6.40681227-31.5726207 5.4307837-10.73837383 17.52271687-16.34469085 29.22749117-13.55106578 11.7047744 2.79362506 19.9613834 13.25660958 19.957104 25.29014878z" fill="#c4d6f8"/><path id="Shape" d="m27 1c-.5 0-1 .018-1.5.046 13.7527494.79475151 24.4985722 12.178306 24.5 25.954.0133015 5.5532423-1.7685911 10.9620579-5.08 15.42-1.5372613 2.1072537-3.3927463 3.9627387-5.5 5.5-4.082851 3.0255291-8.9704831 4.7737466-14.046 5.024.538.034 1.079.056 1.626.056 5.5532423.0133015 10.9620579-1.7685911 15.42-5.08 2.1072537-1.5372613 3.9627387-3.3927463 5.5-5.5 5.8264498-7.8921946 6.7118886-18.392865 2.2892852-27.1492816-4.4226035-8.75641667-13.3993807-14.27597742-23.2092852-14.2707184z" fill="#a2c1f9"/><circle id="Oval" cx="27" cy="27" fill="#e7ecfa" r="22"/><path id="Shape" d="m27 5c-.5 0-1 .023-1.5.057 11.5391351.78718633 20.4970742 10.3770456 20.4970742 21.943s-8.9579391 21.1558137-20.4970742 21.943c.5.034 1 .057 1.5.057 12.1502645 0 22-9.8497355 22-22s-9.8497355-22-22-22z" fill="#c8d7f9"/><path id="Shape" d="m57.86 57.86c-.7290736.7298572-1.71838 1.1399527-2.75 1.1399527s-2.0209264-.4100955-2.75-1.1399527l-9.94-9.94c2.1072537-1.5372613 3.9627387-3.3927463 5.5-5.5l9.94 9.94c.7298572.7290736 1.1399527 1.71838 1.1399527 2.75s-.4100955 2.0209264-1.1399527 2.75z" fill="#a2c0f3"/><path id="Shape" d="m57.86 52.36-9.94-9.94c-.421.576-.869 1.129-1.335 1.665l8.275 8.275c.91932.9158896 1.320791 2.2302292 1.070156 3.5034869-.2506349 1.2732577-1.1202954 2.3373808-2.318156 2.8365131 1.715255.7224159 3.7018989.1275798 4.7378939-1.4186086s.8305779-3.6097746-.4898939-4.9213914z" fill="#7da9f5"/><path id="Shape" d="m25.374 52.944c.538.034 1.079.056 1.626.056.463 0 .917-.032 1.374-.056-13.7055698-.8839653-24.35982645-12.2752053-24.32648378-26.0092115.03334268-13.7340061 10.74278348-25.07338051 24.45248378-25.8907885-.5-.026-1-.044-1.5-.044-14.0124583.04191309-25.47108356 11.1807449-25.90950194 25.1864057-.43841838 14.0056607 10.30109914 25.8393597 24.28350194 26.7575943z" fill="#fff"/><path id="Shape" d="m1.269 18.821 1.906.6c-.74105586 2.4596614-1.13650885 5.0104174-1.175 7.579h-2c.03904303-2.7722109.46619268-5.5252897 1.269-8.179z" fill="#fff"/><g fill="#3f89f9"><path id="Shape" d="m1.355 24.013c-.55228473.0027614-1.00223852-.4427153-1.00499994-.995-.00276143-.5522847.44271521-1.0022385.99499994-1.005h.01c.55228475 0 1 .4477153 1 1s-.44771525 1-1 1z"/><path id="Shape" d="m27 50c12.7025492 0 23-10.2974508 23-23s-10.2974508-23-23-23-23 10.2974508-23 23c.01432841 12.6966095 10.3033905 22.9856716 23 23zm0-44c11.5979797 0 21 9.4020203 21 21s-9.4020203 21-21 21-21-9.4020203-21-21c.01322591-11.592497 9.407503-20.98677409 21-21z"/><path id="Shape" d="m49.223 42.309c5.6993849-8.2561481 6.3473394-18.9928156 1.6822149-27.8744586-4.6651245-8.88164298-13.872921-14.44153111-23.9052149-14.4345414-2.8442905.03564084-5.6679873.48811964-8.381 1.343-2.7054405.88488003-5.2519373 2.19678332-7.543 3.886-4.62272728 3.38094019-8.05588116 8.1391157-9.807 13.592-.08027834.2594043-.05239193.5402354.07733314.7787865.12972508.238551.35029273.4146013.61166686.4882135.51802397.1455023 1.05768963-.1480545 1.217-.662 1.62246579-5.0484977 4.80216067-9.45344108 9.083-12.583 2.1198738-1.56501568 4.4767221-2.78040803 6.981-3.6 2.5129052-.78904739 5.1273623-1.20777825 7.761-1.243 13.8071187 0 25 11.1928813 25 25s-11.1928813 25-25 25-25-11.1928813-25-25c0-.5522847-.44771525-1-1-1s-1 .4477153-1 1c-.00698971 10.0322939 5.55289842 19.2400904 14.4345414 23.9052149 8.881643 4.6651245 19.6183105 4.01717 27.8744586-1.6822149l9.344 9.344c1.2329448 1.2455987 3.0383091 1.7359365 4.7319773 1.2852073 1.6936683-.4507293 3.0165007-1.7735617 3.46723-3.46723.4507292-1.6936682-.0396086-3.4990325-1.2852073-4.7319773zm7.93 14.844c-1.1429884 1.0923256-2.9430116 1.0923256-4.086 0l-9.14-9.14c1.5031398-1.2131418 2.8728582-2.5828602 4.086-4.086l9.14 9.14c.5423864.5415457.8471667 1.276544.8471667 2.043s-.3047803 1.5014543-.8471667 2.043z"/><path id="Shape" d="m16 22c.5522847 0 1-.4477153 1-1 0-5.5228475 4.4771525-10 10-10s10 4.4771525 10 10v3.586c-.003162 1.1710792.4620297 2.2948125 1.292 3.121.3904653.3910176 1.0239824.3914653 1.415.001.3910175-.3904653.3914653-1.0239824.001-1.415-.4543864-.4516882-.7093074-1.066307-.708-1.707v-3.586c0-6.627417-5.372583-12-12-12s-12 5.372583-12 12c0 .2652165.1053568.5195704.2928932.7071068s.4418903.2928932.7071068.2928932z"/><path id="Shape" d="m16 27c2.7600532-.0033061 4.9966939-2.2399468 5-5v-1c.0026879-1.7236784.7465518-3.3629475 2.042-4.5 1.2972072-1.151981 3.0332688-1.6791563 4.752-1.443 3.0402584.4668934 5.2656916 3.1116793 5.206 6.187v4.756c.0033074 3.3123376 2.6876624 5.9966926 6 6 .5522847 0 1-.4477153 1-1s-.4477153-1-1-1c-2.209139 0-4-1.790861-4-4v-4.756c.0605275-4.0827995-2.9117338-7.5793009-6.951-8.177-2.2844223-.2988453-4.5869112.4004208-6.3193269 1.9191801-1.7324156 1.5187594-2.7269902 3.7099348-2.7296731 6.0138199v1c0 1.6568542-1.3431458 3-3 3-.5522847 0-1 .4477153-1 1s.4477153 1 1 1z"/><path id="Shape" d="m31 23v-2c.0004759-1.1994604-.5373372-2.3358266-1.4652193-3.0959189-.9278821-.7600922-2.1478858-1.0636748-3.3237807-.8270811-1.8976701.4079031-3.2424098 2.1002398-3.211 4.041v1.882c-.0033074 3.3123376-2.6876624 5.9966926-6 6-.5522847 0-1 .4477153-1 1s.4477153 1 1 1c4.4162219-.0049599 7.9950401-3.5837781 8-8v-1.882c-.0220638-.9805468.6403665-1.8446586 1.593-2.078.58929-.1206023 1.2015932.0297336 1.6680199.4095411.4664268.3798074.7376945.9489558.7389801 1.5504589v2c-.0060624 5.5203344-4.4796656 9.9939376-10 10h-2c-.5522847 0-1 .4477153-1 1s.4477153 1 1 1h2c6.624447-.0071648 11.9928352-5.375553 12-12z"/><path id="Shape" d="m36.232 38.027c-2.3269385-.5324293-4.3955703-1.8591825-5.85-3.752-.3316209-.4244421-.8190919-.6987796-1.354-.762-.5198543-.0626585-1.0427805.0893802-1.448.421-3.733 3.019-9.523 3.066-9.58 3.066-.5522847 0-1 .4477153-1 1s.4477153 1 1 1c.265 0 6.547-.04 10.805-3.494 1.7403427 2.2431294 4.1985773 3.82017 6.963 4.467.0760683.0177165.1538961.026774.232.027.5073737.0000989.9344101-.3797821.9934107-.8837137s-.268736-.9721819-.7624107-1.0892863z"/><path id="Shape" d="m37.253 34.032c-1.7242133-.3618317-3.282572-1.2781621-4.437-2.609-.3251239-.4283024-.9307426-.5228156-1.3709101-.213945-.4401674.3088706-.5572746.9105289-.2650899 1.361945 1.4220265 1.7253869 3.3826429 2.9228175 5.567 3.4.0828564.0198274.1678061.0295647.253.029.5037726.0010368.9296606-.3728287.9938956-.8724903.0642349-.4996617-.2532416-.9690917-.7408956-1.0955097z"/><path id="Shape" d="m32.316 41.051c-1.1152333-.3431088-2.1821693-.8270104-3.175-1.44-.6918693-.4652814-1.60108-.4472891-2.274.045-1.4770952.8654135-3.155124 1.3287936-4.867 1.344-.5522847 0-1 .4477153-1 1s.4477153 1 1 1c2.1331976-.0131978 4.2226882-.6059978 6.045-1.715 1.1375429.706711 2.3603553 1.2658645 3.639 1.664.1020243.0333952.2086499.0506037.316.051.4907827.0003557.9092874-.3554987.9878345-.8399553.0785471-.4844565-.2060815-.954313-.6718345-1.1090447z"/></g></g></g></svg>