<svg height="511pt" viewBox="0 -65 511.9995 511" width="511pt" xmlns="http://www.w3.org/2000/svg"><path d="m505.8125 297.847656c-20.207031-1.625-69.078125-2.289062-124.371094 20.542969-36.925781 15.242187-76.054687 29.753906-108.675781 36.929687-25.46875 12.886719-54.265625 20.15625-84.761719 20.15625-13.382812 0-26.433594-1.410156-39.023437-4.066406 0 0 93.882812 25.164063 213.730469-7.230468 78.4375-21.203126 110.050781-17.628907 120.949218-14.515626 3.058594.875 6.304688-.578124 7.757813-3.40625l19.832031-38.648437c2.191406-4.265625-.660156-9.378906-5.4375-9.761719zm0 0" fill="#4f67d2"/><path d="m499.066406 324.3125c-11.4375-3.113281-44.597656-6.691406-126.890625 14.511719-33.757812 8.699219-65.546875 13.246093-93.996093 15.246093-1.820313.433594-3.628907.859376-5.414063 1.25-25.46875 12.886719-54.265625 20.15625-84.761719 20.15625-13.382812 0-26.433594-1.410156-39.023437-4.066406 0 0 93.882812 25.164063 213.734375-7.234375 78.4375-21.203125 110.046875-17.625 120.949218-14.511719 3.058594.875 6.304688-.578124 7.753907-3.410156l11.234375-21.890625c-1.148438.277344-2.382813.277344-3.585938-.050781zm0 0" fill="#324ccc"/><path d="m376.007812 188.503906c0 103.828125-84.171874 188-188.003906 188-103.832031 0-188.003906-84.171875-188.003906-188 0-103.832031 84.171875-188.003906 188.003906-188.003906 103.832032 0 188.003906 84.171875 188.003906 188.003906zm0 0" fill="#b1dbfc"/><path d="m30.648438 188.503906c0-98.671875 76.015624-179.582031 172.679687-187.378906-5.054687-.410156-10.164063-.625-15.324219-.625-103.832031 0-188.003906 84.171875-188.003906 188.003906 0 103.828125 84.171875 188 188.003906 188 5.160156 0 10.269532-.214844 15.324219-.621094-96.664063-7.800781-172.679687-88.707031-172.679687-187.378906zm0 0" fill="#8cc9f9"/><path d="m345.828125 188.503906c0 87.164063-70.660156 157.824219-157.824219 157.824219-87.164062 0-157.824218-70.660156-157.824218-157.824219 0-87.164062 70.660156-157.824218 157.824218-157.824218 87.164063 0 157.824219 70.660156 157.824219 157.824218zm0 0" fill="#8cc9f9"/><path d="m60.828125 188.503906c0-81.996094 62.527344-149.375 142.5-157.082031-5.042969-.488281-10.152344-.742187-15.324219-.742187-87.164062 0-157.824218 70.65625-157.824218 157.820312s70.660156 157.824219 157.824218 157.824219c5.171875 0 10.28125-.253907 15.324219-.742188-79.972656-7.703125-142.5-75.085937-142.5-157.078125zm0 0" fill="#60b8fe"/><path d="m227.027344 102.441406c0 21.554688-17.472656 39.023438-39.023438 39.023438-21.554687 0-39.023437-17.46875-39.023437-39.023438 0-21.550781 17.46875-39.023437 39.023437-39.023437 21.550782 0 39.023438 17.472656 39.023438 39.023437zm0 0" fill="#6c7ed6"/><path d="m227.027344 274.5625c0 21.550781-17.472656 39.023438-39.023438 39.023438-21.554687 0-39.023437-17.472657-39.023437-39.023438s17.46875-39.023438 39.023437-39.023438c21.550782 0 39.023438 17.472657 39.023438 39.023438zm0 0" fill="#6c7ed6"/><path d="m140.96875 188.503906c0 21.550782-17.472656 39.023438-39.027344 39.023438-21.550781 0-39.023437-17.472656-39.023437-39.023438 0-21.554687 17.472656-39.023437 39.023437-39.023437 21.554688 0 39.027344 17.46875 39.027344 39.023437zm0 0" fill="#6c7ed6"/><path d="m313.085938 188.503906c0 21.550782-17.46875 39.023438-39.023438 39.023438-21.550781 0-39.023438-17.472656-39.023438-39.023438 0-21.554687 17.472657-39.023437 39.023438-39.023437 21.554688 0 39.023438 17.46875 39.023438 39.023437zm0 0" fill="#6c7ed6"/><g fill="#4f67d2"><path d="m188.003906 275.136719c13.6875 0 26.628906-3.183594 38.136719-8.839844-3.792969-17.582031-19.421875-30.757813-38.136719-30.757813s-34.347656 13.175782-38.140625 30.757813c11.511719 5.652344 24.449219 8.839844 38.140625 8.839844zm0 0"/><path d="m110.210938 150.363281c-5.65625 11.511719-8.84375 24.449219-8.84375 38.140625 0 13.6875 3.1875 26.628906 8.84375 38.136719 17.578124-3.792969 30.757812-19.421875 30.757812-38.136719s-13.179688-34.347656-30.757812-38.140625zm0 0"/><path d="m188.003906 101.867188c-13.691406 0-26.632812 3.1875-38.140625 8.839843 3.792969 17.582031 19.425781 30.761719 38.140625 30.761719s34.34375-13.179688 38.136719-30.761719c-11.507813-5.652343-24.449219-8.839843-38.136719-8.839843zm0 0"/><path d="m274.636719 188.503906c0-13.691406-3.183594-26.632812-8.839844-38.140625-17.578125 3.792969-30.757813 19.425781-30.757813 38.140625s13.179688 34.34375 30.757813 38.136719c5.652344-11.507813 8.839844-24.449219 8.839844-38.136719zm0 0"/></g><path d="m207.078125 188.503906c0 10.535156-8.539063 19.074219-19.074219 19.074219s-19.074218-8.539063-19.074218-19.074219 8.539062-19.074218 19.074218-19.074218 19.074219 8.539062 19.074219 19.074218zm0 0" fill="#60b8fe"/><path d="m193.394531 188.503906c0-5.878906 2.664063-11.132812 6.84375-14.628906-3.3125-2.773438-7.578125-4.449219-12.234375-4.449219-10.535156 0-19.074218 8.539063-19.074218 19.074219s8.539062 19.078125 19.074218 19.078125c4.65625 0 8.921875-1.675781 12.234375-4.449219-4.179687-3.496094-6.84375-8.75-6.84375-14.625zm0 0" fill="#23a8fe"/></svg>